<?xml version="1.0" encoding="UTF-8"?>
<svg id="Layer_2" data-name="Layer 2" xmlns="http://www.w3.org/2000/svg" viewBox="0 0 273.24 279.99">
  <defs>
    <style>
      .cls-1 {
        fill: #fff;
      }

      .cls-2 {
        fill: #e46aff;
      }

      .cls-3 {
        fill: #ec9fff;
      }
    </style>
  </defs>
  <g id="goat">
    <g>
      <path d="M136.38,279.99c-53.54,0-64.97-23.61-72.54-39.24l-.09-.18c-1.16-2.38-2.25-4.63-3.34-6.42-2.06-3.38-3.56-3.38-4.05-3.38-.74,0-1.45.25-1.72.38l-28.46,16.02,10.66-31.05c1.05-3.06,2.25-5.85,3.52-8.36l-29.63-7.53,28.44-19.75c-11.28-3.16-20.32-9.18-26.99-18.02-23-30.46-6.75-80.93-4.82-86.58l7.99-23.66,14.15,20.61c13.41,19.54,29.16,27.16,40.87,30.02-1.05-4.65-1.86-9.97-2.09-15.78-.73-18.94,4.8-46.62,35.26-70.9L123.84,0v104.18h25.55V0l20.29,16.14c30.47,24.28,35.99,51.96,35.27,70.9-.22,5.81-1.04,11.13-2.08,15.78,11.72-2.87,27.47-10.48,40.87-30.01l14.16-20.61,7.99,23.69c1.92,5.62,18.19,56.06-4.83,86.55-6.66,8.83-15.7,14.85-26.99,18.01l28.44,19.76-29.62,7.53c1.27,2.51,2.47,5.3,3.52,8.36l10.71,31.06-28.55-16.04c-.25-.12-.96-.38-1.69-.38-1.29,0-2.64,1.15-4.03,3.42-1.14,1.85-2.24,4.15-3.42,6.58-7.58,15.64-19.03,39.25-72.55,39.25h-.47Z"/>
      <path d="M174.48,207.04c.65,1.22.18,2.73-1.05,3.38l-34.11,17.92-.2,10.97c-.01.08-.02.14-.03.21,0,.08,0,.17-.03.25-.01.08-.04.16-.07.24-.02.07-.04.15-.07.22-.03.08-.08.15-.12.22-.03.07-.07.14-.11.21-.05.07-.1.13-.16.19-.04.06-.09.12-.14.17-.06.06-.13.11-.19.17-.06.05-.11.1-.18.14-.07.05-.14.08-.22.12-.06.04-.13.08-.2.11-.08.04-.16.06-.25.08-.07.03-.14.05-.21.07-.09.02-.18.02-.28.03-.06.01-.13.02-.2.03h-.09c-.07-.01-.14-.02-.2-.03-.1,0-.19,0-.28-.03-.07-.02-.14-.04-.21-.07-.09-.02-.17-.04-.25-.08-.07-.03-.14-.07-.2-.11-.08-.04-.15-.07-.22-.12-.06-.04-.12-.09-.18-.14-.06-.06-.13-.11-.19-.17-.05-.05-.1-.11-.14-.17-.06-.06-.11-.12-.16-.19-.04-.07-.07-.14-.11-.21s-.08-.14-.12-.22c-.03-.07-.05-.15-.07-.22-.03-.08-.05-.16-.07-.24s-.02-.17-.03-.25c-.01-.07-.02-.13-.02-.21l-.21-10.97-34.11-17.92c-1.22-.65-1.69-2.16-1.05-3.38s2.15-1.69,3.37-1.05l34.5,18.12,34.49-18.12c1.22-.64,2.73-.17,3.37,1.05Z"/>
      <path d="M172.18,145.05v34.79c0,4.14-3.36,7.5-7.5,7.5s-7.5-3.36-7.5-7.5v-34.79c0-4.14,3.35-7.5,7.5-7.5s7.5,3.36,7.5,7.5Z"/>
      <path d="M116.06,145.05v34.79c0,4.14-3.36,7.5-7.5,7.5s-7.5-3.36-7.5-7.5v-34.79c0-4.14,3.35-7.5,7.5-7.5s7.5,3.36,7.5,7.5Z"/>
      <g>
        <path class="cls-2" d="M253.08,85.48c3.47,12.77,11.06,47.97-4.01,67.94-6.35,8.41-16.15,13.21-29.21,14.36,8.38-5.53,18.83-16.03,17.58-33.7l-.17-2.32h-4.88c4.51-5.19,9.6-14.92,5.41-30.34,5.17-4.22,10.35-9.45,15.28-15.94Z"/>
        <path class="cls-3" d="M233.46,104.74c4.34,19.47-8.31,27.02-8.87,27.34l-8.34,4.68h16.29c.12,21.77-20.45,30-23.73,31.18l-1.52-.08-.53,1.93c-.36,1.29-.75,6.31,9.4,16.46l10.78,7.53-20.25,5.17,3.7,3.13c.06.05,5.62,4.84,9.88,14.09-5.44-1-13.84-.32-20.25,10.17-1.5,2.46-2.77,5.09-4.12,7.87-7,14.43-14.92,30.78-59.05,30.78h-.47c-44.13,0-52.05-16.35-59.05-30.78-1.34-2.78-2.62-5.41-4.12-7.87-5.13-8.39-11.53-10.51-16.67-10.51-1.28,0-2.49.14-3.58.34,4.27-9.25,9.82-14.03,9.88-14.09l3.73-3.13-20.28-5.17,10.44-7.25.34-.28c10.15-10.15,9.76-15.17,9.41-16.46l-.54-1.93-1.51.08c-3.29-1.18-23.86-9.41-23.74-31.18h16.09s-8.13-4.68-8.13-4.68c-.57-.32-13.22-7.87-8.88-27.34,8.83,6.32,17.38,9.85,24.29,11.83,13.2,3.76,23.1,2.79,24.6,2.61h95.91c1.5.18,11.4,1.15,24.6-2.61,6.91-1.98,15.47-5.51,24.29-11.83ZM173.43,210.42c1.23-.65,1.7-2.16,1.05-3.38-.64-1.22-2.15-1.69-3.37-1.05l-34.49,18.12-34.5-18.12c-1.22-.64-2.73-.17-3.37,1.05s-.17,2.73,1.05,3.38l34.11,17.92.21,10.97c0,.08.01.14.02.21.01.08.01.17.03.25s.04.16.07.24c.02.07.04.15.07.22.04.08.08.15.12.22s.07.14.11.21c.05.07.1.13.16.19.04.06.09.12.14.17.06.06.13.11.19.17.06.05.12.1.18.14.07.05.14.08.22.12.06.04.13.08.2.11.08.04.16.06.25.08.07.03.14.05.21.07.09.02.18.02.28.03.06.01.13.02.2.03h.09c.07-.01.14-.02.2-.03.1,0,.19,0,.28-.03.07-.02.14-.04.21-.07.09-.02.17-.04.25-.08.07-.03.14-.07.2-.11.08-.04.15-.07.22-.12.07-.04.12-.09.18-.14.06-.06.13-.11.19-.17.05-.05.1-.11.14-.17.06-.06.11-.12.16-.19.04-.07.08-.14.11-.21.04-.07.09-.14.12-.22.03-.07.05-.15.07-.22.03-.08.06-.16.07-.24.02-.08.02-.17.03-.25.01-.07.02-.13.03-.21l.2-10.97,34.11-17.92ZM172.18,179.84v-34.79c0-4.14-3.36-7.5-7.5-7.5s-7.5,3.36-7.5,7.5v34.79c0,4.14,3.35,7.5,7.5,7.5s7.5-3.36,7.5-7.5ZM116.06,179.84v-34.79c0-4.14-3.36-7.5-7.5-7.5s-7.5,3.36-7.5,7.5v34.79c0,4.14,3.35,7.5,7.5,7.5s7.5-3.36,7.5-7.5Z"/>
        <path class="cls-1" d="M189.99,82.83c0,1.14,0,2.28-.03,3.42-.48,13.72-5.05,24.38-6.77,27.93h-18.8v-31.35h25.6Z"/>
        <path class="cls-1" d="M189.73,77.83h-25.34v-24.23h18.11c4.05,7.61,6.46,15.7,7.23,24.23Z"/>
        <path class="cls-1" d="M179.53,48.6h-15.14v-17.32c6.17,5.43,11.2,11.21,15.14,17.32Z"/>
        <path class="cls-1" d="M108.84,82.83v31.35h-18.8c-1.72-3.55-6.29-14.21-6.77-27.93-.04-1.14-.04-2.28-.03-3.42h25.6Z"/>
        <path class="cls-1" d="M108.84,53.6v24.23h-25.33c.76-8.53,3.17-16.62,7.22-24.23h18.11Z"/>
        <path class="cls-1" d="M108.84,31.28v17.32h-15.14c3.94-6.11,8.98-11.89,15.14-17.32Z"/>
        <path class="cls-2" d="M40.84,131.76h-4.88l-.17,2.32c-1.25,17.67,9.2,28.17,17.58,33.7-13.05-1.15-22.86-5.96-29.2-14.36-15.08-19.97-7.49-55.17-4.02-67.94,4.93,6.49,10.12,11.72,15.28,15.94-4.19,15.42.9,25.15,5.41,30.34Z"/>
      </g>
    </g>
  </g>
</svg>